<svg width="336" height="106" viewBox="0 0 336 106" fill="none" xmlns="http://www.w3.org/2000/svg">
<path fill-rule="evenodd" clip-rule="evenodd" d="M9.91877 4.76405C7.52815 4.76405 5.13751 6.25281 3.04572 8.33708C1.55158 10.1236 0.356235 12.8034 0.356235 15.1854C-0.839077 41.0899 0.953919 67.5899 6.034 93.1966C6.93048 97.9607 12.0105 103.32 17.0906 103.618C67.493 105.206 117.796 106 167.999 106C218.401 106 268.704 105.206 318.907 103.618C323.987 103.32 329.067 97.9607 330.262 93.1966C335.044 67.5899 336.837 41.0899 335.641 15.1854C335.641 12.8034 334.745 10.1236 332.952 8.33708C331.159 6.25281 328.469 4.76405 326.079 4.76405C278.565 1.48876 223.282 0 167.999 0C112.716 0 57.7313 1.48876 9.91877 4.76405Z" fill="url(#paint0_linear_2751_557)"/>
<path fill-rule="evenodd" clip-rule="evenodd" d="M167.998 97.9619C121.68 97.9619 67.8906 97.6642 27.25 94.9844C67.8906 98.2597 121.68 98.8552 167.998 98.8552C214.615 98.8552 268.404 98.2597 309.045 94.9844C268.404 97.6642 214.615 97.9619 167.998 97.9619Z" fill="#996433"/>
<path fill-rule="evenodd" clip-rule="evenodd" d="M13.502 13.6981C64.9004 10.1251 116.598 9.23183 167.996 9.23183C219.395 9.23183 271.092 10.1251 322.49 13.6981C325.18 13.6981 326.076 13.9959 326.375 14.8891C326.076 13.6981 325.18 13.4004 322.49 13.1026C271.092 8.63633 219.395 7.44531 167.996 7.44531C116.598 7.44531 64.9004 8.63633 13.502 13.1026C10.8125 13.4004 9.91602 13.6981 9.61719 14.8891C9.91602 13.9959 10.8125 13.6981 13.502 13.6981Z" fill="#B0763B"/>
<path style="mix-blend-mode:screen" fill-rule="evenodd" clip-rule="evenodd" d="M167.998 2.97656C140.705 2.97656 113.511 3.47282 86.4175 4.46533C60.9176 5.25933 35.5172 6.45035 10.2164 8.03836C6.33162 8.33612 3.04453 12.8024 3.04453 16.3754C2.44688 25.308 2.74568 34.2406 3.34333 43.1732C3.94099 52.7013 5.13634 56.2743 5.43517 55.6788C5.73399 55.3811 5.13631 34.8361 5.73397 18.7575C6.03279 13.1002 9.31992 11.6114 13.5035 11.3136C64.9019 6.84735 116.599 5.65634 167.998 5.65634C219.695 5.65634 271.392 6.84735 322.492 11.3136C326.974 11.6114 329.962 13.1002 330.56 18.7575C330.859 34.8361 330.56 55.3811 330.859 55.6788C330.859 56.2743 332.054 52.7013 332.652 43.1732C333.25 34.2406 333.548 25.308 333.25 16.3754C332.951 12.8024 329.664 8.33612 326.078 8.03836C300.578 6.45035 275.177 5.25933 249.876 4.46533C222.584 3.47282 195.291 2.97656 167.998 2.97656Z" fill="url(#paint1_linear_2751_557)"/>
<path style="mix-blend-mode:screen" opacity="0.75" fill-rule="evenodd" clip-rule="evenodd" d="M168.001 102.129C131.843 102.129 90.0068 102.129 53.251 99.4497C51.7568 99.1519 50.5615 97.9609 53.5498 97.9609C91.2021 99.1519 129.751 99.7474 168.001 99.7474C206.55 99.7474 245.099 99.1519 282.452 97.9609C285.739 97.9609 284.245 99.1519 282.751 99.4497C245.995 102.129 204.458 102.129 168.001 102.129Z" fill="url(#paint2_radial_2751_557)"/>
<path fill-rule="evenodd" clip-rule="evenodd" d="M9.32072 18.4647C8.42423 41.3917 10.2172 64.3187 14.102 86.6501C15.5961 94.6894 15.2973 94.0939 23.3657 94.6894C64.3051 97.667 120.186 97.9647 167.998 97.9647C216.11 97.9647 271.692 97.667 312.93 94.6894C320.998 94.0939 320.401 94.6894 321.895 86.6501C325.78 64.3187 327.573 41.3917 326.676 18.4647C326.377 13.9984 326.676 13.9984 322.493 13.7007C271.094 10.1276 219.397 9.23438 167.998 9.23438C116.6 9.23438 64.9028 10.1276 13.5043 13.7007C9.32074 13.9984 9.61954 13.9984 9.32072 18.4647Z" fill="url(#paint3_linear_2751_557)"/>
<path style="mix-blend-mode:screen" fill-rule="evenodd" clip-rule="evenodd" d="M321.895 22.0316C312.034 16.3743 240.016 11.3125 167.999 11.3125C95.981 11.3125 24.2622 16.3743 14.1021 22.0316C7.22902 25.9024 15.8951 87.835 18.8833 90.5147C24.2622 95.8743 311.735 95.8743 317.114 90.5147C320.102 87.835 328.768 25.9024 321.895 22.0316Z" fill="url(#paint4_linear_2751_557)"/>
<path style="mix-blend-mode:screen" opacity="0.5" fill-rule="evenodd" clip-rule="evenodd" d="M167.998 85.7521C49.3636 85.7521 21.2737 82.4768 21.2737 84.5611C20.3772 90.2184 94.1878 92.8982 167.998 92.8982C241.809 92.8982 315.619 90.2184 315.022 84.5611C314.723 82.4768 286.932 85.7521 167.998 85.7521Z" fill="url(#paint5_radial_2751_557)"/>
<defs>
<linearGradient id="paint0_linear_2751_557" x1="151.217" y1="105.976" x2="151.217" y2="0" gradientUnits="userSpaceOnUse">
<stop stop-color="#D48303"/>
<stop offset="1" stop-color="#FFDD00"/>
</linearGradient>
<linearGradient id="paint1_linear_2751_557" x1="163.787" y1="55.8515" x2="163.787" y2="2.97656" gradientUnits="userSpaceOnUse">
<stop/>
<stop offset="1" stop-color="#FFD6A1"/>
</linearGradient>
<radialGradient id="paint2_radial_2751_557" cx="0" cy="0" r="1" gradientUnits="userSpaceOnUse" gradientTransform="translate(168.049 100.09) scale(127.725 127.265)">
<stop stop-color="#FFA1A1"/>
<stop offset="1"/>
</radialGradient>
<linearGradient id="paint3_linear_2751_557" x1="155.558" y1="97.9409" x2="155.558" y2="9.1778" gradientUnits="userSpaceOnUse">
<stop stop-color="#870000"/>
<stop offset="1" stop-color="#BF0000"/>
</linearGradient>
<linearGradient id="paint4_linear_2751_557" x1="156.927" y1="87.1352" x2="156.927" y2="-36.8609" gradientUnits="userSpaceOnUse">
<stop stop-color="#290000"/>
<stop offset="1" stop-color="#D61010"/>
</linearGradient>
<radialGradient id="paint5_radial_2751_557" cx="0" cy="0" r="1" gradientUnits="userSpaceOnUse" gradientTransform="translate(162.557 -38.4554) scale(240.428 239.563)">
<stop stop-color="#ED4242"/>
<stop offset="1"/>
</radialGradient>
</defs>
</svg>
